<?xml version="1.0" encoding="utf-8"?><!-- Uploaded to: SVG Repo, www.svgrepo.com, Generator: SVG Repo Mixer Tools -->
<svg width="800px" height="800px" viewBox="0 0 24 24" fill="none" xmlns="http://www.w3.org/2000/svg">
<path fill-rule="evenodd" clip-rule="evenodd" d="M 23.5 12 C 23.5 18.4 18.3 23.5 12 23.5 C 5.6 23.5 0.4 18.4 0.4 12 C 0.4 5.6 5.6 0.5 12 0.5 C 18.3 0.5 23.5 5.6 23.5 12 Z M 8.5 8.5 C 8.8 8.2 9.3 8.2 9.7 8.5 L 12 10.8 L 14.2 8.5 C 14.6 8.2 15.1 8.2 15.5 8.5 C 15.8 8.8 15.8 9.4 15.5 9.7 L 13.2 12 L 15.5 14.3 C 15.8 14.6 15.8 15.2 15.5 15.5 C 15.1 15.8 14.6 15.8 14.2 15.5 L 12 13.2 L 9.7 15.5 C 9.3 15.8 8.8 15.8 8.5 15.5 C 8.1 15.2 8.1 14.6 8.5 14.3 L 10.7 12 L 8.5 9.7 C 8.1 9.4 8.1 8.8 8.5 8.5 Z" fill="#1c274c"/>
</svg>