<?xml version="1.0" encoding="iso-8859-1"?>
<!-- Uploaded to: SVG Repo, www.svgrepo.com, Generator: SVG Repo Mixer Tools -->
<svg version="1.1" id="Capa_1" xmlns="http://www.w3.org/2000/svg" xmlns:xlink="http://www.w3.org/1999/xlink" 
	 viewBox="0 0 242.405 242.405" xml:space="preserve">
<g>
	<path fill="#ffffff" d="M201.849,135.576c-3.656-21.778-16.566-24.598-23.007-24.598c-0.204,0-0.402,0.003-0.593,0.008
		c-0.049,0.002-0.097,0.002-0.145,0.002c-1.875,0-3.603-0.983-4.608-2.574c-5.371-8.491-12.67-10.721-18.854-10.721
		c-3.197,0-6.096,0.596-8.277,1.23c-0.503,0.146-1.013,0.217-1.516,0.217c-1.842,0-3.595-0.946-4.642-2.559
		c-4.979-7.667-11.833-10.155-18.144-10.155c-6.144-0.001-11.771,2.356-14.656,4.588c-1.297,1.002-2.39,2.16-3.311,3.388
		c-1.084,1.444-2.661,2.118-4.232,2.118c-2.25,0-4.489-1.379-5.263-3.847L72.608,23.655C70.051,15.501,63.736,12.001,57.354,12
		c-10.056-0.002-20.28,8.685-16.252,21.534L66.8,114.372c0.891,2.844-0.653,5.914-3.496,6.807
		c-5.637,1.768-13.888,7.269-15.402,24.243c-2.558,28.665,26.197,60.101,31.007,65.142c0.45,0.472,0.813,1.02,1.069,1.621
		l11.706,27.221c0.855,2.012,2.83,3,5.017,3h74.855c2.655,0,4.925-1.596,5.373-4.213l3.282-27.274
		c0.071-0.415,0.188-0.736,0.353-1.124C183.093,203.823,205.247,155.806,201.849,135.576z"/>
	
		<line style="fill:none;stroke:#FFFFFF;stroke-width:0;stroke-linecap:round;stroke-linejoin:round;" x1="57.356" y1="0" x2="57.356" y2="0"/>
	<path fill="#ffffff" d="M100.203,46.405h58.489l-12.887,13.091c-2.343,2.343-2.343,6.242,0.001,8.586c1.171,1.171,2.707,1.808,4.242,1.808
		c1.535,0,3.071-0.561,4.243-1.732l22.386-22.374c2.343-2.343,2.343-6.135-0.001-8.479l-22.976-22.972
		c-2.342-2.342-6.142-2.342-8.485,0.002c-2.343,2.343-2.343,5.94,0.001,8.284l11.989,11.786h-57.003c-3.314,0-6,2.687-6,6
		S96.889,46.405,100.203,46.405z"/>
</g>
</svg>